# xmcd
#
# Track frame offsets: 
#        150
#        12019
#        28032
#        42562
#        53423
#        66902
#        80036
#        95202
#        107826
#        120353
#        130808
#        144622
#        154678
#        171289
#        187269
#        201946
#
# Disc length: 2869 seconds
#
# Revision: 0
# Processed by: cddbd v1.5.2PL0 Copyright (c) Steve Scherf et al.
# Submitted via: ExactAudioCopy v0.95b4
#
DISCID=e40b3310
DTITLE=Billy Joe Shaver - The Complete Columbia Recordings D2 (1982-19
DTITLE=87)
DYEAR=2013
DGENRE=Country
TTITLE0=Ride Me Down Easy
TTITLE1=Tell Me Virginia
TTITLE2=Low Down Freedom
TTITLE3=One Moving Part
TTITLE4=I Been To Georgia On A Fast Train
TTITLE5=Love You Till The Cows Come Home
TTITLE6=Sweet Mama
TTITLE7=Hardworkin' Man
TTITLE8=Manual Labor
TTITLE9=Hill Country Love Song
TTITLE10=You Just Can't Beat Jesus Christ
TTITLE11=The Devil Made Me Do It The First Time
TTITLE12=Fun While It Lasted
TTITLE13=Whiteman's Watermelon
TTITLE14=Street Walkin' Woman
TTITLE15=Good News Blues
EXTD=
EXTT0=
EXTT1=
EXTT2=
EXTT3=
EXTT4=
EXTT5=
EXTT6=
EXTT7=
EXTT8=
EXTT9=
EXTT10=
EXTT11=
EXTT12=
EXTT13=
EXTT14=
EXTT15=
PLAYORDER=
